<svg width="565" height="202" viewBox="0 0 565 202" fill="none" xmlns="http://www.w3.org/2000/svg">
<path d="M564.8 0H484V201.52H564.8V0Z" fill="#F9F0D8"/>
<path d="M80.8 0H0V201.52H80.8V0Z" fill="#264653"/>
<path d="M321.8 0H241V201.52H321.8V0Z" fill="#F4A261"/>
<path d="M161.8 0H81V201.52H161.8V0Z" fill="#D46246"/>
<path d="M242.8 0H162V201.52H242.8V0Z" fill="#E76F51"/>
<path d="M402.8 0H322V201.52H402.8V0Z" fill="#B0CC93"/>
<path d="M483.8 0H403V201.52H483.8V0Z" fill="#CEE1EB"/>
<path d="M421.285 174.592L420.629 177.664H423.013V178.304H420.485L419.701 182H418.997L419.781 178.304H416.005L415.221 182H414.517L415.301 178.304H412.741V177.664H415.445L416.101 174.592H413.573V173.952H416.229L417.045 170.16H417.749L416.933 173.952H420.709L421.525 170.16H422.229L421.413 173.952H423.845V174.592H421.285ZM420.581 174.592H416.805L416.149 177.664H419.925L420.581 174.592ZM425.434 176.4C425.434 175.291 425.664 174.304 426.122 173.44C426.592 172.565 427.232 171.883 428.042 171.392C428.864 170.901 429.781 170.656 430.794 170.656C432.074 170.656 433.152 170.955 434.026 171.552C434.901 172.149 435.541 172.987 435.946 174.064H435.114C434.794 173.211 434.261 172.539 433.514 172.048C432.778 171.547 431.872 171.296 430.794 171.296C429.93 171.296 429.146 171.504 428.442 171.92C427.738 172.325 427.184 172.917 426.778 173.696C426.373 174.464 426.17 175.365 426.17 176.4C426.17 177.424 426.373 178.32 426.778 179.088C427.184 179.845 427.738 180.432 428.442 180.848C429.146 181.264 429.93 181.472 430.794 181.472C431.872 181.472 432.778 181.227 433.514 180.736C434.261 180.235 434.794 179.557 435.114 178.704H435.946C435.541 179.781 434.901 180.619 434.026 181.216C433.152 181.813 432.074 182.112 430.794 182.112C429.781 182.112 428.864 181.872 428.042 181.392C427.232 180.901 426.592 180.224 426.122 179.36C425.664 178.485 425.434 177.499 425.434 176.4ZM438.915 171.376V176.064H443.395V176.672H438.915V181.392H443.875V182H438.195V170.768H443.875V171.376H438.915ZM446.774 171.376V176.064H451.254V176.672H446.774V181.392H451.734V182H446.054V170.768H451.734V171.376H446.774ZM452.97 171.28V170.624H455.338V182H454.618V171.28H452.97ZM458.774 171.376V176.064H463.254V176.672H458.774V181.392H463.734V182H458.054V170.768H463.734V171.376H458.774ZM470.762 176.192C471.412 176.309 471.956 176.629 472.394 177.152C472.842 177.675 473.066 178.288 473.066 178.992C473.066 179.568 472.927 180.085 472.65 180.544C472.383 180.992 471.978 181.349 471.434 181.616C470.9 181.872 470.25 182 469.482 182H465.914V170.768H469.418C470.538 170.768 471.38 171.029 471.946 171.552C472.522 172.064 472.81 172.731 472.81 173.552C472.81 174.267 472.618 174.848 472.234 175.296C471.85 175.733 471.359 176.032 470.762 176.192ZM466.634 175.872H469.45C470.292 175.872 470.938 175.675 471.386 175.28C471.844 174.875 472.074 174.32 472.074 173.616C472.074 172.933 471.85 172.395 471.402 172C470.954 171.605 470.276 171.408 469.37 171.408H466.634V175.872ZM469.434 181.376C470.34 181.376 471.05 181.163 471.562 180.736C472.084 180.299 472.346 179.701 472.346 178.944C472.346 178.197 472.079 177.605 471.546 177.168C471.023 176.72 470.303 176.496 469.386 176.496H466.634V181.376H469.434Z" fill="black"/>
<path d="M499.394 174.592L498.738 177.664H501.122V178.304H498.594L497.81 182H497.106L497.89 178.304H494.114L493.33 182H492.626L493.41 178.304H490.85V177.664H493.554L494.21 174.592H491.682V173.952H494.338L495.154 170.16H495.858L495.042 173.952H498.818L499.634 170.16H500.338L499.522 173.952H501.954V174.592H499.394ZM498.69 174.592H494.914L494.258 177.664H498.034L498.69 174.592ZM509.784 170.768V171.376H504.712V176.064H509.144V176.672H504.712V182H503.992V170.768H509.784ZM512.527 179.024C512.633 179.803 512.916 180.405 513.375 180.832C513.844 181.259 514.473 181.472 515.263 181.472C516.34 181.472 517.156 181.072 517.711 180.272C518.276 179.472 518.559 178.176 518.559 176.384L518.543 175.76C518.383 176.464 517.983 177.024 517.343 177.44C516.713 177.856 515.977 178.064 515.135 178.064C513.983 178.064 513.076 177.723 512.415 177.04C511.753 176.357 511.423 175.413 511.423 174.208C511.423 173.141 511.727 172.256 512.335 171.552C512.953 170.837 513.881 170.48 515.119 170.48C516.676 170.48 517.743 170.976 518.319 171.968C518.905 172.96 519.199 174.341 519.199 176.112C519.199 178.064 518.895 179.552 518.287 180.576C517.679 181.589 516.66 182.096 515.231 182.096C514.228 182.096 513.439 181.819 512.863 181.264C512.287 180.699 511.945 179.952 511.839 179.024H512.527ZM515.215 177.456C515.759 177.456 516.276 177.344 516.767 177.12C517.257 176.885 517.652 176.544 517.951 176.096C518.26 175.648 518.415 175.104 518.415 174.464C518.415 173.856 518.297 173.296 518.063 172.784C517.828 172.272 517.46 171.861 516.959 171.552C516.468 171.243 515.855 171.088 515.119 171.088C514.212 171.088 513.481 171.371 512.927 171.936C512.383 172.491 512.111 173.248 512.111 174.208C512.111 175.243 512.383 176.043 512.927 176.608C513.471 177.173 514.233 177.456 515.215 177.456ZM527.409 170.768V171.376H522.337V176.064H526.769V176.672H522.337V182H521.617V170.768H527.409ZM529.08 176.256C529.08 174.411 529.346 172.992 529.88 172C530.413 170.997 531.394 170.496 532.824 170.496C534.242 170.496 535.218 170.997 535.752 172C536.285 172.992 536.552 174.411 536.552 176.256C536.552 178.123 536.285 179.563 535.752 180.576C535.218 181.579 534.242 182.08 532.824 182.08C531.394 182.08 530.413 181.579 529.88 180.576C529.346 179.563 529.08 178.123 529.08 176.256ZM535.848 176.256C535.848 175.189 535.768 174.288 535.608 173.552C535.458 172.816 535.16 172.235 534.712 171.808C534.274 171.371 533.645 171.152 532.824 171.152C532.002 171.152 531.368 171.371 530.92 171.808C530.482 172.235 530.184 172.816 530.024 173.552C529.874 174.288 529.8 175.189 529.8 176.256C529.8 177.344 529.874 178.261 530.024 179.008C530.184 179.744 530.482 180.331 530.92 180.768C531.368 181.205 532.002 181.424 532.824 181.424C533.645 181.424 534.274 181.205 534.712 180.768C535.16 180.331 535.458 179.744 535.608 179.008C535.768 178.261 535.848 177.344 535.848 176.256ZM542.097 170.768C543.995 170.768 545.457 171.264 546.481 172.256C547.515 173.248 548.033 174.629 548.033 176.4C548.033 178.171 547.515 179.547 546.481 180.528C545.457 181.509 543.995 182 542.097 182H538.945V170.768H542.097ZM542.097 181.392C543.793 181.392 545.083 180.955 545.969 180.08C546.854 179.195 547.297 177.968 547.297 176.4C547.297 174.821 546.854 173.589 545.969 172.704C545.083 171.819 543.793 171.376 542.097 171.376H539.665V181.392H542.097ZM552.354 176.128C551.608 175.936 551.048 175.605 550.674 175.136C550.301 174.667 550.114 174.101 550.114 173.44C550.114 172.565 550.44 171.856 551.09 171.312C551.752 170.768 552.664 170.496 553.826 170.496C554.989 170.496 555.896 170.768 556.546 171.312C557.208 171.856 557.538 172.565 557.538 173.44C557.538 174.091 557.352 174.656 556.978 175.136C556.605 175.605 556.045 175.936 555.298 176.128C556.098 176.299 556.722 176.64 557.17 177.152C557.629 177.664 557.858 178.304 557.858 179.072C557.858 180.085 557.496 180.891 556.77 181.488C556.056 182.075 555.074 182.368 553.826 182.368C552.578 182.368 551.597 182.075 550.882 181.488C550.168 180.891 549.81 180.085 549.81 179.072C549.81 178.304 550.034 177.664 550.482 177.152C550.941 176.629 551.565 176.288 552.354 176.128ZM556.834 173.488C556.834 172.731 556.562 172.144 556.018 171.728C555.474 171.312 554.744 171.104 553.826 171.104C552.909 171.104 552.178 171.312 551.634 171.728C551.09 172.133 550.818 172.725 550.818 173.504C550.818 174.24 551.09 174.821 551.634 175.248C552.178 175.664 552.909 175.872 553.826 175.872C554.744 175.872 555.474 175.659 556.018 175.232C556.562 174.805 556.834 174.224 556.834 173.488ZM553.826 176.448C552.856 176.448 552.056 176.661 551.426 177.088C550.808 177.515 550.498 178.171 550.498 179.056C550.498 179.899 550.797 180.56 551.394 181.04C552.002 181.52 552.813 181.76 553.826 181.76C554.84 181.76 555.645 181.52 556.242 181.04C556.84 180.56 557.138 179.899 557.138 179.056C557.138 178.181 556.829 177.531 556.21 177.104C555.592 176.667 554.797 176.448 553.826 176.448Z" fill="black"/>
<path d="M333.574 174.592L332.918 177.664H335.302V178.304H332.774L331.99 182H331.286L332.07 178.304H328.294L327.51 182H326.806L327.59 178.304H325.03V177.664H327.734L328.39 174.592H325.862V173.952H328.518L329.334 170.16H330.038L329.222 173.952H332.998L333.814 170.16H334.518L333.702 173.952H336.134V174.592H333.574ZM332.87 174.592H329.094L328.438 177.664H332.214L332.87 174.592ZM343.019 176.192C343.67 176.309 344.214 176.629 344.651 177.152C345.099 177.675 345.323 178.288 345.323 178.992C345.323 179.568 345.185 180.085 344.907 180.544C344.641 180.992 344.235 181.349 343.691 181.616C343.158 181.872 342.507 182 341.739 182H338.171V170.768H341.675C342.795 170.768 343.638 171.029 344.203 171.552C344.779 172.064 345.067 172.731 345.067 173.552C345.067 174.267 344.875 174.848 344.491 175.296C344.107 175.733 343.617 176.032 343.019 176.192ZM338.891 175.872H341.707C342.55 175.872 343.195 175.675 343.643 175.28C344.102 174.875 344.331 174.32 344.331 173.616C344.331 172.933 344.107 172.395 343.659 172C343.211 171.605 342.534 171.408 341.627 171.408H338.891V175.872ZM341.691 181.376C342.598 181.376 343.307 181.163 343.819 180.736C344.342 180.299 344.603 179.701 344.603 178.944C344.603 178.197 344.337 177.605 343.803 177.168C343.281 176.72 342.561 176.496 341.643 176.496H338.891V181.376H341.691ZM347.197 176.256C347.197 174.411 347.464 172.992 347.997 172C348.53 170.997 349.512 170.496 350.941 170.496C352.36 170.496 353.336 170.997 353.869 172C354.402 172.992 354.669 174.411 354.669 176.256C354.669 178.123 354.402 179.563 353.869 180.576C353.336 181.579 352.36 182.08 350.941 182.08C349.512 182.08 348.53 181.579 347.997 180.576C347.464 179.563 347.197 178.123 347.197 176.256ZM353.965 176.256C353.965 175.189 353.885 174.288 353.725 173.552C353.576 172.816 353.277 172.235 352.829 171.808C352.392 171.371 351.762 171.152 350.941 171.152C350.12 171.152 349.485 171.371 349.037 171.808C348.6 172.235 348.301 172.816 348.141 173.552C347.992 174.288 347.917 175.189 347.917 176.256C347.917 177.344 347.992 178.261 348.141 179.008C348.301 179.744 348.6 180.331 349.037 180.768C349.485 181.205 350.12 181.424 350.941 181.424C351.762 181.424 352.392 181.205 352.829 180.768C353.277 180.331 353.576 179.744 353.725 179.008C353.885 178.261 353.965 177.344 353.965 176.256ZM356.614 176.4C356.614 175.291 356.843 174.304 357.302 173.44C357.771 172.565 358.411 171.883 359.222 171.392C360.043 170.901 360.961 170.656 361.974 170.656C363.254 170.656 364.331 170.955 365.206 171.552C366.081 172.149 366.721 172.987 367.126 174.064H366.294C365.974 173.211 365.441 172.539 364.694 172.048C363.958 171.547 363.051 171.296 361.974 171.296C361.11 171.296 360.326 171.504 359.622 171.92C358.918 172.325 358.363 172.917 357.958 173.696C357.553 174.464 357.35 175.365 357.35 176.4C357.35 177.424 357.553 178.32 357.958 179.088C358.363 179.845 358.918 180.432 359.622 180.848C360.326 181.264 361.11 181.472 361.974 181.472C363.051 181.472 363.958 181.227 364.694 180.736C365.441 180.235 365.974 179.557 366.294 178.704H367.126C366.721 179.781 366.081 180.619 365.206 181.216C364.331 181.813 363.254 182.112 361.974 182.112C360.961 182.112 360.043 181.872 359.222 181.392C358.411 180.901 357.771 180.224 357.302 179.36C356.843 178.485 356.614 177.499 356.614 176.4ZM368.927 176.4C368.927 175.291 369.156 174.304 369.615 173.44C370.084 172.565 370.724 171.883 371.535 171.392C372.356 170.901 373.273 170.656 374.287 170.656C375.567 170.656 376.644 170.955 377.519 171.552C378.393 172.149 379.033 172.987 379.439 174.064H378.607C378.287 173.211 377.753 172.539 377.007 172.048C376.271 171.547 375.364 171.296 374.287 171.296C373.423 171.296 372.639 171.504 371.935 171.92C371.231 172.325 370.676 172.917 370.271 173.696C369.865 174.464 369.663 175.365 369.663 176.4C369.663 177.424 369.865 178.32 370.271 179.088C370.676 179.845 371.231 180.432 371.935 180.848C372.639 181.264 373.423 181.472 374.287 181.472C375.364 181.472 376.271 181.227 377.007 180.736C377.753 180.235 378.287 179.557 378.607 178.704H379.439C379.033 179.781 378.393 180.619 377.519 181.216C376.644 181.813 375.567 182.112 374.287 182.112C373.273 182.112 372.356 181.872 371.535 181.392C370.724 180.901 370.084 180.224 369.615 179.36C369.156 178.485 368.927 177.499 368.927 176.4ZM382.519 179.024C382.626 179.803 382.908 180.405 383.367 180.832C383.836 181.259 384.466 181.472 385.255 181.472C386.332 181.472 387.148 181.072 387.703 180.272C388.268 179.472 388.551 178.176 388.551 176.384L388.535 175.76C388.375 176.464 387.975 177.024 387.335 177.44C386.706 177.856 385.97 178.064 385.127 178.064C383.975 178.064 383.068 177.723 382.407 177.04C381.746 176.357 381.415 175.413 381.415 174.208C381.415 173.141 381.719 172.256 382.327 171.552C382.946 170.837 383.874 170.48 385.111 170.48C386.668 170.48 387.735 170.976 388.311 171.968C388.898 172.96 389.191 174.341 389.191 176.112C389.191 178.064 388.887 179.552 388.279 180.576C387.671 181.589 386.652 182.096 385.223 182.096C384.22 182.096 383.431 181.819 382.855 181.264C382.279 180.699 381.938 179.952 381.831 179.024H382.519ZM385.207 177.456C385.751 177.456 386.268 177.344 386.759 177.12C387.25 176.885 387.644 176.544 387.943 176.096C388.252 175.648 388.407 175.104 388.407 174.464C388.407 173.856 388.29 173.296 388.055 172.784C387.82 172.272 387.452 171.861 386.951 171.552C386.46 171.243 385.847 171.088 385.111 171.088C384.204 171.088 383.474 171.371 382.919 171.936C382.375 172.491 382.103 173.248 382.103 174.208C382.103 175.243 382.375 176.043 382.919 176.608C383.463 177.173 384.226 177.456 385.207 177.456ZM391.321 173.6C391.417 172.629 391.79 171.867 392.441 171.312C393.102 170.757 393.972 170.48 395.049 170.48C395.742 170.48 396.334 170.608 396.825 170.864C397.316 171.109 397.689 171.445 397.945 171.872C398.201 172.299 398.329 172.784 398.329 173.328C398.329 174.011 398.121 174.603 397.705 175.104C397.289 175.595 396.654 175.888 395.801 175.984V176.08C396.622 176.208 397.284 176.523 397.785 177.024C398.286 177.525 398.537 178.197 398.537 179.04C398.537 179.936 398.238 180.672 397.641 181.248C397.054 181.813 396.19 182.096 395.049 182.096C393.972 182.096 393.081 181.808 392.377 181.232C391.684 180.656 391.268 179.84 391.129 178.784H391.833C391.961 179.573 392.302 180.219 392.857 180.72C393.412 181.211 394.142 181.456 395.049 181.456C395.966 181.456 396.66 181.227 397.129 180.768C397.609 180.309 397.849 179.717 397.849 178.992C397.849 178.117 397.513 177.461 396.841 177.024C396.18 176.587 395.23 176.368 393.993 176.368H393.689V175.744H394.009C396.42 175.733 397.625 174.944 397.625 173.376C397.625 172.693 397.396 172.144 396.937 171.728C396.489 171.312 395.854 171.104 395.033 171.104C394.233 171.104 393.556 171.317 393.001 171.744C392.457 172.16 392.132 172.779 392.025 173.6H391.321Z" fill="black"/>
<path d="M14.2067 174.592L13.5507 177.664H15.9347V178.304H13.4067L12.6227 182H11.9187L12.7027 178.304H8.92669L8.14269 182H7.43869L8.22269 178.304H5.66269V177.664H8.36669L9.02269 174.592H6.49469V173.952H9.15069L9.96669 170.16H10.6707L9.85469 173.952H13.6307L14.4467 170.16H15.1507L14.3347 173.952H16.7667V174.592H14.2067ZM13.5027 174.592H9.72669L9.07069 177.664H12.8467L13.5027 174.592ZM18.2922 181.472C20.2975 180.085 21.8762 178.747 23.0282 177.456C24.1909 176.165 24.7722 174.928 24.7722 173.744C24.7722 172.965 24.5642 172.331 24.1482 171.84C23.7429 171.349 23.0762 171.104 22.1482 171.104C21.2202 171.104 20.5109 171.387 20.0202 171.952C19.5295 172.517 19.2522 173.264 19.1882 174.192H18.4842C18.5589 173.019 18.9215 172.107 19.5722 171.456C20.2229 170.805 21.0815 170.48 22.1482 170.48C23.1189 170.48 23.9135 170.752 24.5322 171.296C25.1615 171.84 25.4762 172.651 25.4762 173.728C25.4762 175.061 24.8629 176.405 23.6362 177.76C22.4202 179.115 21.0282 180.309 19.4602 181.344H25.8442V181.952H18.2922V181.472ZM34.4732 173.488C34.3559 172.72 34.0732 172.128 33.6252 171.712C33.1772 171.285 32.5639 171.072 31.7852 171.072C30.6865 171.072 29.8439 171.477 29.2572 172.288C28.6812 173.099 28.3932 174.411 28.3932 176.224L28.4092 176.848C28.5799 176.112 28.9905 175.531 29.6412 175.104C30.2919 174.667 31.0492 174.448 31.9132 174.448C33.0652 174.448 33.9665 174.795 34.6172 175.488C35.2679 176.181 35.5932 177.131 35.5932 178.336C35.5932 179.019 35.4652 179.643 35.2092 180.208C34.9532 180.773 34.5479 181.227 33.9932 181.568C33.4385 181.909 32.7452 182.08 31.9132 182.08C30.3132 182.08 29.2199 181.579 28.6332 180.576C28.0465 179.563 27.7532 178.171 27.7532 176.4C27.7532 174.491 28.0679 173.024 28.6972 172C29.3372 170.976 30.3665 170.464 31.7852 170.464C32.7772 170.464 33.5559 170.741 34.1212 171.296C34.6972 171.84 35.0439 172.571 35.1612 173.488H34.4732ZM31.8012 175.072C31.2572 175.072 30.7345 175.184 30.2332 175.408C29.7319 175.632 29.3212 175.973 29.0012 176.432C28.6919 176.88 28.5372 177.429 28.5372 178.08C28.5372 178.677 28.6545 179.237 28.8892 179.76C29.1345 180.272 29.5079 180.688 30.0092 181.008C30.5105 181.317 31.1345 181.472 31.8812 181.472C32.7985 181.472 33.5292 181.195 34.0732 180.64C34.6172 180.085 34.8892 179.323 34.8892 178.352C34.8892 177.307 34.6172 176.501 34.0732 175.936C33.5292 175.36 32.7719 175.072 31.8012 175.072ZM36.9867 179.12V178.56L43.0827 170.672H43.8987V178.496H45.7227V179.12H43.8987V182H43.1947V179.12H36.9867ZM43.2107 171.536L37.8347 178.496H43.2107V171.536ZM53.8951 173.488C53.7777 172.72 53.4951 172.128 53.0471 171.712C52.5991 171.285 51.9857 171.072 51.2071 171.072C50.1084 171.072 49.2657 171.477 48.6791 172.288C48.1031 173.099 47.8151 174.411 47.8151 176.224L47.8311 176.848C48.0017 176.112 48.4124 175.531 49.0631 175.104C49.7137 174.667 50.4711 174.448 51.3351 174.448C52.4871 174.448 53.3884 174.795 54.0391 175.488C54.6897 176.181 55.0151 177.131 55.0151 178.336C55.0151 179.019 54.8871 179.643 54.6311 180.208C54.3751 180.773 53.9697 181.227 53.4151 181.568C52.8604 181.909 52.1671 182.08 51.3351 182.08C49.7351 182.08 48.6417 181.579 48.0551 180.576C47.4684 179.563 47.1751 178.171 47.1751 176.4C47.1751 174.491 47.4897 173.024 48.1191 172C48.7591 170.976 49.7884 170.464 51.2071 170.464C52.1991 170.464 52.9777 170.741 53.5431 171.296C54.1191 171.84 54.4657 172.571 54.5831 173.488H53.8951ZM51.2231 175.072C50.6791 175.072 50.1564 175.184 49.6551 175.408C49.1537 175.632 48.7431 175.973 48.4231 176.432C48.1137 176.88 47.9591 177.429 47.9591 178.08C47.9591 178.677 48.0764 179.237 48.3111 179.76C48.5564 180.272 48.9297 180.688 49.4311 181.008C49.9324 181.317 50.5564 181.472 51.3031 181.472C52.2204 181.472 52.9511 181.195 53.4951 180.64C54.0391 180.085 54.3111 179.323 54.3111 178.352C54.3111 177.307 54.0391 176.501 53.4951 175.936C52.9511 175.36 52.1937 175.072 51.2231 175.072ZM64.1366 171.264H57.9926V175.856C58.2806 175.451 58.7019 175.12 59.2566 174.864C59.8112 174.597 60.4139 174.464 61.0646 174.464C61.9286 174.464 62.6326 174.64 63.1766 174.992C63.7312 175.333 64.1312 175.781 64.3766 176.336C64.6219 176.891 64.7446 177.493 64.7446 178.144C64.7446 178.869 64.6112 179.531 64.3446 180.128C64.0779 180.715 63.6566 181.189 63.0806 181.552C62.5152 181.904 61.8006 182.08 60.9366 182.08C59.8912 182.08 59.0272 181.797 58.3446 181.232C57.6726 180.656 57.2619 179.883 57.1126 178.912H57.8166C57.9766 179.733 58.3339 180.363 58.8886 180.8C59.4432 181.227 60.1259 181.44 60.9366 181.44C61.9712 181.44 62.7499 181.141 63.2726 180.544C63.7952 179.936 64.0566 179.141 64.0566 178.16C64.0566 177.2 63.7899 176.448 63.2566 175.904C62.7339 175.36 61.9819 175.088 61.0006 175.088C60.3286 175.088 59.7259 175.237 59.1926 175.536C58.6699 175.835 58.2646 176.245 57.9766 176.768H57.3046V170.624H64.1366V171.264ZM66.6881 173.6C66.7841 172.629 67.1574 171.867 67.8081 171.312C68.4694 170.757 69.3387 170.48 70.4161 170.48C71.1094 170.48 71.7014 170.608 72.1921 170.864C72.6827 171.109 73.0561 171.445 73.3121 171.872C73.5681 172.299 73.6961 172.784 73.6961 173.328C73.6961 174.011 73.4881 174.603 73.0721 175.104C72.6561 175.595 72.0214 175.888 71.1681 175.984V176.08C71.9894 176.208 72.6507 176.523 73.1521 177.024C73.6534 177.525 73.9041 178.197 73.9041 179.04C73.9041 179.936 73.6054 180.672 73.0081 181.248C72.4214 181.813 71.5574 182.096 70.4161 182.096C69.3387 182.096 68.4481 181.808 67.7441 181.232C67.0507 180.656 66.6347 179.84 66.4961 178.784H67.2001C67.3281 179.573 67.6694 180.219 68.2241 180.72C68.7787 181.211 69.5094 181.456 70.4161 181.456C71.3334 181.456 72.0267 181.227 72.4961 180.768C72.9761 180.309 73.2161 179.717 73.2161 178.992C73.2161 178.117 72.8801 177.461 72.2081 177.024C71.5467 176.587 70.5974 176.368 69.3601 176.368H69.0561V175.744H69.3761C71.7867 175.733 72.9921 174.944 72.9921 173.376C72.9921 172.693 72.7627 172.144 72.3041 171.728C71.8561 171.312 71.2214 171.104 70.4001 171.104C69.6001 171.104 68.9227 171.317 68.3681 171.744C67.8241 172.16 67.4987 172.779 67.3921 173.6H66.6881Z" fill="#FFFDFD"/>
<path d="M94.3161 174.592L93.6601 177.664H96.0441V178.304H93.5161L92.7321 182H92.0281L92.8121 178.304H89.0361L88.2521 182H87.5481L88.3321 178.304H85.7721V177.664H88.4761L89.1321 174.592H86.6041V173.952H89.2601L90.0761 170.16H90.7801L89.9641 173.952H93.7401L94.5561 170.16H95.2601L94.4441 173.952H96.8761V174.592H94.3161ZM93.6121 174.592H89.8361L89.1801 177.664H92.9561L93.6121 174.592ZM102.066 170.768C103.964 170.768 105.426 171.264 106.45 172.256C107.484 173.248 108.002 174.629 108.002 176.4C108.002 178.171 107.484 179.547 106.45 180.528C105.426 181.509 103.964 182 102.066 182H98.9136V170.768H102.066ZM102.066 181.392C103.762 181.392 105.052 180.955 105.938 180.08C106.823 179.195 107.266 177.968 107.266 176.4C107.266 174.821 106.823 173.589 105.938 172.704C105.052 171.819 103.762 171.376 102.066 171.376H99.6336V181.392H102.066ZM109.299 179.12V178.56L115.395 170.672H116.211V178.496H118.035V179.12H116.211V182H115.507V179.12H109.299ZM115.523 171.536L110.147 178.496H115.523V171.536ZM126.208 173.488C126.09 172.72 125.808 172.128 125.36 171.712C124.912 171.285 124.298 171.072 123.52 171.072C122.421 171.072 121.578 171.477 120.992 172.288C120.416 173.099 120.128 174.411 120.128 176.224L120.144 176.848C120.314 176.112 120.725 175.531 121.376 175.104C122.026 174.667 122.784 174.448 123.648 174.448C124.8 174.448 125.701 174.795 126.352 175.488C127.002 176.181 127.328 177.131 127.328 178.336C127.328 179.019 127.2 179.643 126.944 180.208C126.688 180.773 126.282 181.227 125.728 181.568C125.173 181.909 124.48 182.08 123.648 182.08C122.048 182.08 120.954 181.579 120.368 180.576C119.781 179.563 119.488 178.171 119.488 176.4C119.488 174.491 119.802 173.024 120.432 172C121.072 170.976 122.101 170.464 123.52 170.464C124.512 170.464 125.29 170.741 125.856 171.296C126.432 171.84 126.778 172.571 126.896 173.488H126.208ZM123.536 175.072C122.992 175.072 122.469 175.184 121.968 175.408C121.466 175.632 121.056 175.973 120.736 176.432C120.426 176.88 120.272 177.429 120.272 178.08C120.272 178.677 120.389 179.237 120.624 179.76C120.869 180.272 121.242 180.688 121.744 181.008C122.245 181.317 122.869 181.472 123.616 181.472C124.533 181.472 125.264 181.195 125.808 180.64C126.352 180.085 126.624 179.323 126.624 178.352C126.624 177.307 126.352 176.501 125.808 175.936C125.264 175.36 124.506 175.072 123.536 175.072ZM129.089 181.472C131.094 180.085 132.673 178.747 133.825 177.456C134.988 176.165 135.569 174.928 135.569 173.744C135.569 172.965 135.361 172.331 134.945 171.84C134.54 171.349 133.873 171.104 132.945 171.104C132.017 171.104 131.308 171.387 130.817 171.952C130.326 172.517 130.049 173.264 129.985 174.192H129.281C129.356 173.019 129.718 172.107 130.369 171.456C131.02 170.805 131.878 170.48 132.945 170.48C133.916 170.48 134.71 170.752 135.329 171.296C135.958 171.84 136.273 172.651 136.273 173.728C136.273 175.061 135.66 176.405 134.433 177.76C133.217 179.115 131.825 180.309 130.257 181.344H136.641V181.952H129.089V181.472ZM137.846 179.12V178.56L143.942 170.672H144.758V178.496H146.582V179.12H144.758V182H144.054V179.12H137.846ZM144.07 171.536L138.694 178.496H144.07V171.536ZM154.754 173.488C154.637 172.72 154.354 172.128 153.906 171.712C153.458 171.285 152.845 171.072 152.066 171.072C150.968 171.072 150.125 171.477 149.538 172.288C148.962 173.099 148.674 174.411 148.674 176.224L148.69 176.848C148.861 176.112 149.272 175.531 149.922 175.104C150.573 174.667 151.33 174.448 152.194 174.448C153.346 174.448 154.248 174.795 154.898 175.488C155.549 176.181 155.874 177.131 155.874 178.336C155.874 179.019 155.746 179.643 155.49 180.208C155.234 180.773 154.829 181.227 154.274 181.568C153.72 181.909 153.026 182.08 152.194 182.08C150.594 182.08 149.501 181.579 148.914 180.576C148.328 179.563 148.034 178.171 148.034 176.4C148.034 174.491 148.349 173.024 148.978 172C149.618 170.976 150.648 170.464 152.066 170.464C153.058 170.464 153.837 170.741 154.402 171.296C154.978 171.84 155.325 172.571 155.442 173.488H154.754ZM152.082 175.072C151.538 175.072 151.016 175.184 150.514 175.408C150.013 175.632 149.602 175.973 149.282 176.432C148.973 176.88 148.818 177.429 148.818 178.08C148.818 178.677 148.936 179.237 149.17 179.76C149.416 180.272 149.789 180.688 150.29 181.008C150.792 181.317 151.416 181.472 152.162 181.472C153.08 181.472 153.81 181.195 154.354 180.64C154.898 180.085 155.17 179.323 155.17 178.352C155.17 177.307 154.898 176.501 154.354 175.936C153.81 175.36 153.053 175.072 152.082 175.072Z" fill="white"/>
<path d="M181.636 174.592L180.98 177.664H183.364V178.304H180.836L180.052 182H179.348L180.132 178.304H176.356L175.572 182H174.868L175.652 178.304H173.092V177.664H175.796L176.452 174.592H173.924V173.952H176.58L177.396 170.16H178.1L177.284 173.952H181.06L181.876 170.16H182.58L181.764 173.952H184.196V174.592H181.636ZM180.932 174.592H177.156L176.5 177.664H180.276L180.932 174.592ZM186.954 171.376V176.064H191.434V176.672H186.954V181.392H191.914V182H186.234V170.768H191.914V171.376H186.954ZM200.429 171.216L195.949 182H195.213L199.757 171.264H193.069V170.64H200.429V171.216ZM208.903 173.488C208.786 172.72 208.503 172.128 208.055 171.712C207.607 171.285 206.994 171.072 206.215 171.072C205.116 171.072 204.274 171.477 203.687 172.288C203.111 173.099 202.823 174.411 202.823 176.224L202.839 176.848C203.01 176.112 203.42 175.531 204.071 175.104C204.722 174.667 205.479 174.448 206.343 174.448C207.495 174.448 208.396 174.795 209.047 175.488C209.698 176.181 210.023 177.131 210.023 178.336C210.023 179.019 209.895 179.643 209.639 180.208C209.383 180.773 208.978 181.227 208.423 181.568C207.868 181.909 207.175 182.08 206.343 182.08C204.743 182.08 203.65 181.579 203.063 180.576C202.476 179.563 202.183 178.171 202.183 176.4C202.183 174.491 202.498 173.024 203.127 172C203.767 170.976 204.796 170.464 206.215 170.464C207.207 170.464 207.986 170.741 208.551 171.296C209.127 171.84 209.474 172.571 209.591 173.488H208.903ZM206.231 175.072C205.687 175.072 205.164 175.184 204.663 175.408C204.162 175.632 203.751 175.973 203.431 176.432C203.122 176.88 202.967 177.429 202.967 178.08C202.967 178.677 203.084 179.237 203.319 179.76C203.564 180.272 203.938 180.688 204.439 181.008C204.94 181.317 205.564 181.472 206.311 181.472C207.228 181.472 207.959 181.195 208.503 180.64C209.047 180.085 209.319 179.323 209.319 178.352C209.319 177.307 209.047 176.501 208.503 175.936C207.959 175.36 207.202 175.072 206.231 175.072ZM218.088 170.768V171.376H213.016V176.064H217.448V176.672H213.016V182H212.296V170.768H218.088ZM226.848 171.264H220.704V175.856C220.992 175.451 221.413 175.12 221.968 174.864C222.522 174.597 223.125 174.464 223.776 174.464C224.64 174.464 225.344 174.64 225.888 174.992C226.442 175.333 226.842 175.781 227.088 176.336C227.333 176.891 227.456 177.493 227.456 178.144C227.456 178.869 227.322 179.531 227.056 180.128C226.789 180.715 226.368 181.189 225.792 181.552C225.226 181.904 224.512 182.08 223.648 182.08C222.602 182.08 221.738 181.797 221.056 181.232C220.384 180.656 219.973 179.883 219.824 178.912H220.528C220.688 179.733 221.045 180.363 221.6 180.8C222.154 181.227 222.837 181.44 223.648 181.44C224.682 181.44 225.461 181.141 225.984 180.544C226.506 179.936 226.767 179.141 226.767 178.16C226.767 177.2 226.501 176.448 225.968 175.904C225.445 175.36 224.693 175.088 223.712 175.088C223.04 175.088 222.437 175.237 221.904 175.536C221.381 175.835 220.976 176.245 220.688 176.768H220.016V170.624H226.848V171.264ZM228.743 171.28V170.624H231.111V182H230.391V171.28H228.743Z" fill="black"/>
<path d="M260.222 174.592L259.566 177.664H261.95V178.304H259.422L258.638 182H257.934L258.718 178.304H254.942L254.158 182H253.454L254.238 178.304H251.678V177.664H254.382L255.038 174.592H252.51V173.952H255.166L255.982 170.16H256.686L255.87 173.952H259.646L260.462 170.16H261.166L260.35 173.952H262.782V174.592H260.222ZM259.518 174.592H255.742L255.086 177.664H258.862L259.518 174.592ZM270.612 170.768V171.376H265.54V176.064H269.972V176.672H265.54V182H264.82V170.768H270.612ZM271.643 179.12V178.56L277.739 170.672H278.555V178.496H280.379V179.12H278.555V182H277.851V179.12H271.643ZM277.867 171.536L272.491 178.496H277.867V171.536ZM288.375 179.12H283.047L281.975 182H281.191L285.319 171.024H286.119L290.231 182H289.447L288.375 179.12ZM288.151 178.512L285.719 171.968L283.271 178.512H288.151ZM291.527 181.472C293.532 180.085 295.111 178.747 296.263 177.456C297.425 176.165 298.007 174.928 298.007 173.744C298.007 172.965 297.799 172.331 297.383 171.84C296.977 171.349 296.311 171.104 295.383 171.104C294.455 171.104 293.745 171.387 293.255 171.952C292.764 172.517 292.487 173.264 292.423 174.192H291.719C291.793 173.019 292.156 172.107 292.807 171.456C293.457 170.805 294.316 170.48 295.383 170.48C296.353 170.48 297.148 170.752 297.767 171.296C298.396 171.84 298.711 172.651 298.711 173.728C298.711 175.061 298.097 176.405 296.871 177.76C295.655 179.115 294.263 180.309 292.695 181.344H299.079V181.952H291.527V181.472ZM307.708 173.488C307.59 172.72 307.308 172.128 306.86 171.712C306.412 171.285 305.798 171.072 305.02 171.072C303.921 171.072 303.078 171.477 302.492 172.288C301.916 173.099 301.628 174.411 301.628 176.224L301.644 176.848C301.814 176.112 302.225 175.531 302.876 175.104C303.526 174.667 304.284 174.448 305.148 174.448C306.3 174.448 307.201 174.795 307.852 175.488C308.502 176.181 308.828 177.131 308.828 178.336C308.828 179.019 308.7 179.643 308.444 180.208C308.188 180.773 307.782 181.227 307.228 181.568C306.673 181.909 305.98 182.08 305.148 182.08C303.548 182.08 302.454 181.579 301.868 180.576C301.281 179.563 300.988 178.171 300.988 176.4C300.988 174.491 301.302 173.024 301.932 172C302.572 170.976 303.601 170.464 305.02 170.464C306.012 170.464 306.79 170.741 307.356 171.296C307.932 171.84 308.278 172.571 308.396 173.488H307.708ZM305.036 175.072C304.492 175.072 303.969 175.184 303.468 175.408C302.966 175.632 302.556 175.973 302.236 176.432C301.926 176.88 301.772 177.429 301.772 178.08C301.772 178.677 301.889 179.237 302.124 179.76C302.369 180.272 302.742 180.688 303.244 181.008C303.745 181.317 304.369 181.472 305.116 181.472C306.033 181.472 306.764 181.195 307.308 180.64C307.852 180.085 308.124 179.323 308.124 178.352C308.124 177.307 307.852 176.501 307.308 175.936C306.764 175.36 306.006 175.072 305.036 175.072ZM310.157 171.28V170.624H312.525V182H311.805V171.28H310.157Z" fill="black"/>
</svg>
